<?xml version="1.0" encoding="UTF-8"?>
<svg width="512" height="512" version="1.1" viewBox="0 0 135.47 135.47" xmlns="http://www.w3.org/2000/svg" xmlns:cc="http://creativecommons.org/ns#" xmlns:dc="http://purl.org/dc/elements/1.1/" xmlns:rdf="http://www.w3.org/1999/02/22-rdf-syntax-ns#">
 <metadata>
  <rdf:RDF>
   <cc:Work rdf:about="">
    <dc:format>image/svg+xml</dc:format>
    <dc:type rdf:resource="http://purl.org/dc/dcmitype/StillImage"/>
    <dc:title/>
   </cc:Work>
  </rdf:RDF>
 </metadata>
 <g transform="translate(.49167 -168.89)">
  <g transform="matrix(.78125 0 0 .78125 14.709 51.761)" filter="url(#filter1088)">
   <rect x="-19.457" y="149.92" width="173.4" height="173.4" fill="#d50000" stroke-width=".43349"/>
   <g fill="#fff" stroke-width=".33867">
    <path d="m21.289 220.55a18.241 18.241 0 0 0-18.241 18.241 18.241 18.241 0 0 0 18.241 18.241 18.241 18.241 0 0 0 18.241-18.241 18.241 18.241 0 0 0-18.241-18.241z"/>
    <path d="m109.66 220.55a18.241 18.241 0 0 0-18.241 18.241 18.241 18.241 0 0 0 18.241 18.241 18.241 18.241 0 0 0 18.241-18.241 18.241 18.241 0 0 0-18.241-18.241z" filter="url(#filter1088)"/>
    <rect x="33.46" y="232.7" width="59.267" height="12.171"/>
    <rect transform="rotate(-45)" x="-147.61" y="177.91" width="59.267" height="12.171" filter="url(#filter1088)"/>
    <rect transform="rotate(45)" x="190.08" y="147.61" width="59.267" height="12.171" filter="url(#filter1088)"/>
    <path d="m109.66 178.64a18.241 18.241 0 0 0-18.241 18.241 18.241 18.241 0 0 0 18.241 18.241 18.241 18.241 0 0 0 18.241-18.241 18.241 18.241 0 0 0-18.241-18.241z" filter="url(#filter1088)"/>
    <rect x="56.076" y="190.79" width="59.267" height="12.171" filter="url(#filter1088)"/>
    <path d="m109.66 262.45a18.241 18.241 0 0 0-18.241 18.241 18.241 18.241 0 0 0 18.241 18.241 18.241 18.241 0 0 0 18.241-18.241 18.241 18.241 0 0 0-18.241-18.241z" filter="url(#filter1088)"/>
    <rect x="56.435" y="274.61" width="59.267" height="12.171" filter="url(#filter1088)"/>
   </g>
   <path d="m63.093 178.64a18.241 18.241 0 0 0-18.241 18.241 18.241 18.241 0 0 0 18.241 18.241 18.241 18.241 0 0 0 18.241-18.241 18.241 18.241 0 0 0-18.241-18.241z" filter="url(#filter1088)" stroke-width=".33867"/>
   <path d="m63.093 262.45a18.241 18.241 0 0 1 18.241 18.241 18.241 18.241 0 0 1-18.241 18.241 18.241 18.241 0 0 1-18.241-18.241 18.241 18.241 0 0 1 18.241-18.241z" filter="url(#filter1088)" stroke-width=".33867"/>
  </g>
 </g>
</svg>
