<?xml version="1.0" encoding="UTF-8"?>
<svg width="512" height="512" version="1.1" viewBox="0 0 135.47 135.47" xmlns="http://www.w3.org/2000/svg" xmlns:cc="http://creativecommons.org/ns#" xmlns:dc="http://purl.org/dc/elements/1.1/" xmlns:rdf="http://www.w3.org/1999/02/22-rdf-syntax-ns#">
 <metadata>
  <rdf:RDF>
   <cc:Work rdf:about="">
    <dc:format>image/svg+xml</dc:format>
    <dc:type rdf:resource="http://purl.org/dc/dcmitype/StillImage"/>
   </cc:Work>
  </rdf:RDF>
 </metadata>
 <g transform="translate(-79.343 -5.6451)">
  <rect x="79.343" y="5.6451" width="135.47" height="135.47" fill="#ffab00" stroke-width=".33867"/>
  <rect x="203.37" y="-2.323" width="1.4001" height=".73081" rx="1.3229" ry=".73081" fill="#fafafa" opacity=".99" stroke-width=".26458"/>
  <g transform="matrix(.46475 0 0 .48597 -201.49 -231.92)" fill="#fff" opacity=".999">
   <path d="m853.61 659.31c-10.37 0-18.78 8.4-18.78 18.78v48.41c0 10.37 8.4 18.78 18.78 18.78s18.78-8.4 18.78-18.78v-48.41c0-10.38-8.41-18.78-18.78-18.78z"/>
   <path d="m782.7 624.3c-9.76 0.86-16.93 8.95-16.93 18.02v22.98c0 6.22-5.45 11.26-12.18 11.26h-7.16c-6.73 0-12.18-5.04-12.18-11.26v-22c0-9.07-7.17-17.16-16.93-18.02-11.2-0.99-20.62 7.13-20.62 17.27v84.62c0 9.07 7.17 17.16 16.93 18.02 11.2 0.99 20.62-7.13 20.62-17.27v-26.22c0-6.22 5.45-11.26 12.18-11.26h7.16c6.73 0 12.18 5.04 12.18 11.26v25.47c0 9.07 7.17 17.16 16.93 18.02 11.2 0.99 20.62-7.13 20.62-17.27v-86.34c0-10.16-9.42-18.27-20.62-17.28z"/>
   <path d="m646.39 693.62c-10.37 0-18.78 8.4-18.78 18.78v14.1c0 10.37 8.4 18.78 18.78 18.78 10.37 0 18.78-8.4 18.78-18.78v-14.1c-0.01-10.38-8.41-18.78-18.78-18.78z"/>
   <path d="m863.42 577.37-103.62-63.44c-6.02-3.68-13.59-3.68-19.6 0l-103.61 63.44c-5.57 3.41-8.97 9.48-8.97 16.01v57.61c0 9.81 7.17 18.56 16.93 19.49 11.2 1.07 20.62-7.71 20.62-18.69v-36.5c0-7.08 3.68-13.65 9.72-17.34l69.8-42.74c3.27-2 7.38-2 10.65 0l69.8 42.74c6.04 3.7 9.72 10.26 9.72 17.34v3.71c0 9.81 7.17 18.56 16.93 19.49 11.2 1.07 20.62-7.71 20.62-18.69v-26.43c-0.02-6.52-3.42-12.59-8.99-16z"/>
  </g>
 </g>
</svg>
