<?xml version="1.0" encoding="UTF-8"?>
<svg width="512" height="512" version="1.1" viewBox="0 0 135.47 135.47" xmlns="http://www.w3.org/2000/svg" xmlns:cc="http://creativecommons.org/ns#" xmlns:dc="http://purl.org/dc/elements/1.1/" xmlns:rdf="http://www.w3.org/1999/02/22-rdf-syntax-ns#">
 <metadata>
  <rdf:RDF>
   <cc:Work rdf:about="">
    <dc:format>image/svg+xml</dc:format>
    <dc:type rdf:resource="http://purl.org/dc/dcmitype/StillImage"/>
   </cc:Work>
  </rdf:RDF>
 </metadata>
 <rect x="2.7271e-6" y=".24133" width="135.47" height="134.98" fill="#00c853" stroke-width=".27161"/>
 <g transform="matrix(.78125 0 0 .78125 15.201 -117.13)">
  <circle cx="88.358" cy="257.9" r="46.302" fill-opacity="0" filter="url(#filter1088)" stroke-width=".28421"/>
  <g transform="matrix(1.4629 0 0 1.4629 -45.638 -112.55)">
   <path d="m77.164 192.39a46.302 46.302 0 0 0-46.302 46.302 46.302 46.302 0 0 0 46.302 46.302 46.302 46.302 0 0 0 46.302-46.302 46.302 46.302 0 0 0-46.302-46.302zm0 6.3019a40 40 0 0 1 40 40 40 40 0 0 1-40 40 40 40 0 0 1-40-40 40 40 0 0 1 40-40z" fill="#fff" stroke-width=".28421"/>
   <path d="m77.164 192.39a25 46.302 0 0 0-24.281 35.503 35 15 0 0 1 6.3087-2.0531 19 40 0 0 1 17.973-27.148 19 40 0 0 1 17.968 27.149 35 15 0 0 1 6.3159 2.0722 25 46.302 0 0 0-24.284-35.523zm-24.284 57.081a25 46.302 0 0 0 24.284 35.523 25 46.302 0 0 0 24.281-35.503 35 15 0 0 1-6.3087 2.0531 19 40 0 0 1-17.973 27.148 19 40 0 0 1-17.968-27.149 35 15 0 0 1-6.3159-2.0722z" fill="#fff" filter="url(#filter1088)" stroke-width=".20884"/>
   <text x="39.539787" y="244.74222" fill="#ffffff" font-family="sans-serif" font-size="21.167px" letter-spacing="0px" stroke-width=".26458" word-spacing="0px" style="line-height:1.25" xml:space="preserve"><tspan x="39.539787" y="244.74222" fill="#ffffff" font-family="monospace" font-size="21.167px" font-weight="bold" stroke-width=".26458">YAML<tspan fill="#ffffff" stroke-width=".26458">8n</tspan></tspan></text>
  </g>
 </g>
</svg>
